# xmcd CD database file
#
# Track frame offsets:
#	150
#	25782
#	45967
#	71192
#	96042
#	122410
#	147842
#	170597
#	193375
#	224927
#	245495
#	267187
#
# Disc length: 3887 seconds
#
# Revision: 2
# Processed by: cddbd v1.5.2PL0 Copyright (c) Steve Scherf et al.
# Submitted via: CDex 1.51
#
DISCID=b50f2d0c
DTITLE=Kenneth Arnström - Rhythm King
DYEAR=1995
DGENRE=Jazz
TTITLE0=I Ain't Gonna Give Nobody None Of My Jelly Roll
TTITLE1=Stealin' Away
TTITLE2=Funny Feathers
TTITLE3=Baby Won't You Please Come Home
TTITLE4=Liza
TTITLE5=Solitariness
TTITLE6=Out Of The Gallion
TTITLE7=Forty And Tight
TTITLE8=Sobbin' Blues
TTITLE9=Somebody Stole My Gal
TTITLE10=Bluer Than Blue
TTITLE11=Rhythm King
EXTD=YEAR: 1995
EXTT0=
EXTT1=
EXTT2=
EXTT3=
EXTT4=
EXTT5=
EXTT6=
EXTT7=
EXTT8=
EXTT9=
EXTT10=
EXTT11=
PLAYORDER=
